<?xml version="1.0" standalone="no"?>
<!DOCTYPE svg PUBLIC "-//W3C//DTD SVG 20010904//EN"
 "http://www.w3.org/TR/2001/REC-SVG-20010904/DTD/svg10.dtd">
<svg version="1.0" xmlns="http://www.w3.org/2000/svg"
 width="512.000000pt" height="512.000000pt" viewBox="0 0 512.000000 512.000000"
 preserveAspectRatio="xMidYMid meet">

<g transform="translate(0.000000,512.000000) scale(0.100000,-0.100000)"
fill="#fafafa" stroke="none">
<path d="M2891 4454 c-33 -17 -62 -41 -78 -65 -20 -31 -115 -398 -459 -1771
-238 -953 -434 -1746 -434 -1762 -1 -125 118 -230 241 -213 61 8 128 54 156
107 24 47 883 3465 883 3516 0 115 -103 214 -222 214 -19 0 -58 -12 -87 -26z"/>
<path d="M1444 3620 c-18 -4 -47 -16 -65 -28 -61 -38 -917 -903 -933 -944 -20
-48 -20 -128 0 -176 18 -45 878 -911 939 -947 90 -52 181 -40 255 35 70 69 85
158 43 245 -9 17 -178 193 -376 393 l-362 362 362 363 c198 199 367 376 376
392 42 87 27 176 -43 245 -59 60 -120 79 -196 60z"/>
<path d="M3566 3618 c-25 -7 -58 -29 -86 -57 -70 -70 -85 -159 -43 -246 9 -16
178 -193 376 -392 l362 -363 -362 -362 c-198 -200 -367 -376 -376 -393 -42
-87 -27 -176 43 -245 74 -75 165 -87 255 -35 61 36 921 902 939 947 20 48 20
128 0 176 -18 45 -877 911 -939 947 -48 28 -116 38 -169 23z"/>
</g>
</svg>
